<svg preserveAspectRatio="none" width="100%" height="100%" overflow="visible" style="display: block;" viewBox="0 0 187 27.7705" fill="none" xmlns="http://www.w3.org/2000/svg">
  <g id="stelle">
    <path id="Star 1" d="M15.3 0L18.7351 9.25181H29.8512L20.8581 14.9697L24.2931 24.2215L15.3 18.5036L6.30689 24.2215L9.74195 14.9697L0.748836 9.25181H11.8649L15.3 0Z" fill="#F9BA4E"/>
    <path id="Star 2" d="M171.7 0.991799L175.135 10.2436H186.251L177.258 15.9615L180.693 25.2133L171.7 19.4954L162.707 25.2133L166.142 15.9615L157.149 10.2436H168.265L171.7 0.991799Z" fill="#F9BA4E"/>
    <path id="Star 3" d="M132.6 0.991799L136.035 10.2436H147.151L138.158 15.9615L141.593 25.2133L132.6 19.4954L123.607 25.2133L127.042 15.9615L118.049 10.2436H129.165L132.6 0.991799Z" fill="#F9BA4E"/>
    <path id="Star 4" d="M93.5 0L96.935 9.25181H108.051L99.058 14.9697L102.493 24.2215L93.5 18.5036L84.5069 24.2215L87.9419 14.9697L78.9488 9.25181H90.0649L93.5 0Z" fill="#F9BA4E"/>
    <path id="Star 5" d="M54.4 0.991799L57.835 10.2436H68.9511L59.958 15.9615L63.3931 25.2133L54.4 19.4954L45.4069 24.2215L48.8419 15.9615L39.8488 10.2436H50.9649L54.4 0.991799Z" fill="#F9BA4E"/>
  </g>
</svg>
